#Comment line ignore any data following # character 
#Hierarchical Translation and Rotation (.htr) file 
[Header]	
#Header keywords are followed by a single value 
FileType HTR		#Single word string
DataType HTRS		#Translation followed by rotation and scale data
FileVersion 1		#integer
NumSegments 84		#integer
NumFrames 2		#integer
DataFrameRate 30		#integer, data frame rate in this file
EulerRotationOrder ZYX
CalibrationUnits mm
RotationUnits Degrees
GlobalAxisofGravity Y
BoneLengthAxis Y
ScaleFactor 1.00
[SegmentNames&Hierarchy]
#CHILD	PARENT
MASTER GLOBAL
root MASTER
chest root
L_mid_tent01 root
R_mid_tent01 root
spine01 root
Bip01_Neck chest
L_humerus chest
R_humerus chest
weapon_bone chest
Bip01_Head Bip01_Neck
eye_left_bone Bip01_Head
eye_right_bone Bip01_Head
L_forearm L_humerus
L_front_hand L_forearm
L_weapon_bone L_forearm
L_front_hand01_01 L_front_hand
L_front_hand02_01 L_front_hand
L_front_hand03_01 L_front_hand
L_front_hand01_02 L_front_hand01_01
L_front_hand02_02 L_front_hand02_01
L_front_hand03_02 L_front_hand03_01
R_forearm R_humerus
R_front_hand R_forearm
R_weapon_bone R_forearm
R_front_hand01_01 R_front_hand
R_front_hand02_01 R_front_hand
R_front_hand03_01 R_front_hand
R_front_hand01_02 R_front_hand01_01
R_front_hand02_02 R_front_hand02_01
R_front_hand03_02 R_front_hand03_01
null_rope01_connect L_mid_tent01
Rope1_Seg01 null_rope01_connect
Rope1_Seg02 Rope1_Seg01
Rope1_Seg03 Rope1_Seg02
Rope1_Seg04 Rope1_Seg03
Rope1_Seg05 Rope1_Seg04
Rope1_Seg06 Rope1_Seg05
Rope1_Seg07 Rope1_Seg06
Rope1_Seg09 Rope1_Seg07
L_mid_hand01 Rope1_Seg09
L_mid_hand02 Rope1_Seg09
L_mid_hand03 Rope1_Seg09
null_rope02_connect R_mid_tent01
Rope2_Seg01 null_rope02_connect
Rope2_Seg02 Rope2_Seg01
Rope2_Seg03 Rope2_Seg02
Rope2_Seg04 Rope2_Seg03
Rope2_Seg05 Rope2_Seg04
Rope2_Seg06 Rope2_Seg05
Rope2_Seg07 Rope2_Seg06
Rope2_Seg09 Rope2_Seg07
R_mid_hand01 Rope2_Seg09
R_mid_hand02 Rope2_Seg09
R_mid_hand03 Rope2_Seg09
spine02 spine01
spine03 spine02
pelvis spine03
null_rope03_connect pelvis
null_rope04_connect pelvis
Rope3_Seg01 null_rope03_connect
Rope3_Seg02 Rope3_Seg01
Rope3_Seg03 Rope3_Seg02
Rope3_Seg04 Rope3_Seg03
Rope3_Seg05 Rope3_Seg04
Rope3_Seg06 Rope3_Seg05
Rope3_Seg07 Rope3_Seg06
Rope3_Seg08 Rope3_Seg07
Rope3_Seg09 Rope3_Seg08
R_rear_hand01 Rope3_Seg09
R_rear_hand02 Rope3_Seg09
R_rear_hand03 Rope3_Seg09
Rope4_Seg01 null_rope04_connect
Rope4_Seg02 Rope4_Seg01
Rope4_Seg03 Rope4_Seg02
Rope4_Seg04 Rope4_Seg03
Rope4_Seg05 Rope4_Seg04
Rope4_Seg06 Rope4_Seg05
Rope4_Seg07 Rope4_Seg06
Rope4_Seg08 Rope4_Seg07
Rope4_Seg09 Rope4_Seg08
L_rear_hand01 Rope4_Seg09
L_rear_hand02 Rope4_Seg09
L_rear_hand03 Rope4_Seg09
[BasePosition]
#SegmentName Tx, Ty, Tz, Rx, Ry, Rz, BoneLength
MASTER 0.000000 0.000000 0.000000 -90.000000 0.000000 0.000000 10.000000 
root 0.000000 0.000000 0.000000 0.000000 0.000000 0.000000 10.000000 
chest 0.000000 0.000000 0.000000 0.000000 0.000000 0.000000 10.000000 
L_mid_tent01 0.000000 0.000000 0.000000 0.000000 0.000000 0.000000 10.000000 
R_mid_tent01 0.000000 0.000000 0.000000 0.000000 0.000000 0.000000 10.000000 
spine01 0.000000 0.000000 0.000000 0.000000 0.000000 0.000000 10.000000 
Bip01_Neck 0.000000 0.000000 0.000000 0.000000 0.000000 0.000000 10.000000 
L_humerus 0.000000 0.000000 0.000000 0.000000 0.000000 0.000000 10.000000 
R_humerus 0.000000 0.000000 0.000000 0.000000 0.000000 0.000000 10.000000 
weapon_bone 0.000000 0.000000 0.000000 0.000000 0.000000 0.000000 10.000000 
Bip01_Head 0.000000 0.000000 0.000000 0.000000 0.000000 0.000000 10.000000 
eye_left_bone 0.000000 0.000000 0.000000 0.000000 0.000000 0.000000 10.000000 
eye_right_bone 0.000000 0.000000 0.000000 0.000000 0.000000 0.000000 10.000000 
L_forearm 0.000000 0.000000 0.000000 0.000000 0.000000 0.000000 10.000000 
L_front_hand 0.000000 0.000000 0.000000 0.000000 0.000000 0.000000 10.000000 
L_weapon_bone 0.000000 0.000000 0.000000 0.000000 0.000000 0.000000 10.000000 
L_front_hand01_01 0.000000 0.000000 0.000000 0.000000 0.000000 0.000000 10.000000 
L_front_hand02_01 0.000000 0.000000 0.000000 0.000000 0.000000 0.000000 10.000000 
L_front_hand03_01 0.000000 0.000000 0.000000 0.000000 0.000000 0.000000 10.000000 
L_front_hand01_02 0.000000 0.000000 0.000000 0.000000 0.000000 0.000000 10.000000 
L_front_hand02_02 0.000000 0.000000 0.000000 0.000000 0.000000 0.000000 10.000000 
L_front_hand03_02 0.000000 0.000000 0.000000 0.000000 0.000000 0.000000 10.000000 
R_forearm 0.000000 0.000000 0.000000 0.000000 0.000000 0.000000 10.000000 
R_front_hand 0.000000 0.000000 0.000000 0.000000 0.000000 0.000000 10.000000 
R_weapon_bone 0.000000 0.000000 0.000000 0.000000 0.000000 0.000000 10.000000 
R_front_hand01_01 0.000000 0.000000 0.000000 0.000000 0.000000 0.000000 10.000000 
R_front_hand02_01 0.000000 0.000000 0.000000 0.000000 0.000000 0.000000 10.000000 
R_front_hand03_01 0.000000 0.000000 0.000000 0.000000 0.000000 0.000000 10.000000 
R_front_hand01_02 0.000000 0.000000 0.000000 0.000000 0.000000 0.000000 10.000000 
R_front_hand02_02 0.000000 0.000000 0.000000 0.000000 0.000000 0.000000 10.000000 
R_front_hand03_02 0.000000 0.000000 0.000000 0.000000 0.000000 0.000000 10.000000 
null_rope01_connect 0.000000 0.000000 0.000000 0.000000 0.000000 0.000000 10.000000 
Rope1_Seg01 0.000000 0.000000 0.000000 0.000000 0.000000 0.000000 10.000000 
Rope1_Seg02 0.000000 0.000000 0.000000 0.000000 0.000000 0.000000 10.000000 
Rope1_Seg03 0.000000 0.000000 0.000000 0.000000 0.000000 0.000000 10.000000 
Rope1_Seg04 0.000000 0.000000 0.000000 0.000000 0.000000 0.000000 10.000000 
Rope1_Seg05 0.000000 0.000000 0.000000 0.000000 0.000000 0.000000 10.000000 
Rope1_Seg06 0.000000 0.000000 0.000000 0.000000 0.000000 0.000000 10.000000 
Rope1_Seg07 0.000000 0.000000 0.000000 0.000000 0.000000 0.000000 10.000000 
Rope1_Seg09 0.000000 0.000000 0.000000 0.000000 0.000000 0.000000 10.000000 
L_mid_hand01 0.000000 0.000000 0.000000 0.000000 0.000000 0.000000 10.000000 
L_mid_hand02 0.000000 0.000000 0.000000 0.000000 0.000000 0.000000 10.000000 
L_mid_hand03 0.000000 0.000000 0.000000 0.000000 0.000000 0.000000 10.000000 
null_rope02_connect 0.000000 0.000000 0.000000 0.000000 0.000000 0.000000 10.000000 
Rope2_Seg01 0.000000 0.000000 0.000000 0.000000 0.000000 0.000000 10.000000 
Rope2_Seg02 0.000000 0.000000 0.000000 0.000000 0.000000 0.000000 10.000000 
Rope2_Seg03 0.000000 0.000000 0.000000 0.000000 0.000000 0.000000 10.000000 
Rope2_Seg04 0.000000 0.000000 0.000000 0.000000 0.000000 0.000000 10.000000 
Rope2_Seg05 0.000000 0.000000 0.000000 0.000000 0.000000 0.000000 10.000000 
Rope2_Seg06 0.000000 0.000000 0.000000 0.000000 0.000000 0.000000 10.000000 
Rope2_Seg07 0.000000 0.000000 0.000000 0.000000 0.000000 0.000000 10.000000 
Rope2_Seg09 0.000000 0.000000 0.000000 0.000000 0.000000 0.000000 10.000000 
R_mid_hand01 0.000000 0.000000 0.000000 0.000000 0.000000 0.000000 10.000000 
R_mid_hand02 0.000000 0.000000 0.000000 0.000000 0.000000 0.000000 10.000000 
R_mid_hand03 0.000000 0.000000 0.000000 0.000000 0.000000 0.000000 10.000000 
spine02 0.000000 0.000000 0.000000 0.000000 0.000000 0.000000 10.000000 
spine03 0.000000 0.000000 0.000000 0.000000 0.000000 0.000000 10.000000 
pelvis 0.000000 0.000000 0.000000 0.000000 0.000000 0.000000 10.000000 
null_rope03_connect 0.000000 0.000000 0.000000 0.000000 0.000000 0.000000 10.000000 
null_rope04_connect 0.000000 0.000000 0.000000 0.000000 0.000000 0.000000 10.000000 
Rope3_Seg01 0.000000 0.000000 0.000000 0.000000 0.000000 0.000000 10.000000 
Rope3_Seg02 0.000000 0.000000 0.000000 0.000000 0.000000 0.000000 10.000000 
Rope3_Seg03 0.000000 0.000000 0.000000 0.000000 0.000000 0.000000 10.000000 
Rope3_Seg04 0.000000 0.000000 0.000000 0.000000 0.000000 0.000000 10.000000 
Rope3_Seg05 0.000000 0.000000 0.000000 0.000000 0.000000 0.000000 10.000000 
Rope3_Seg06 0.000000 0.000000 0.000000 0.000000 0.000000 0.000000 10.000000 
Rope3_Seg07 0.000000 0.000000 0.000000 0.000000 0.000000 0.000000 10.000000 
Rope3_Seg08 0.000000 0.000000 0.000000 0.000000 0.000000 0.000000 10.000000 
Rope3_Seg09 0.000000 0.000000 0.000000 0.000000 0.000000 0.000000 10.000000 
R_rear_hand01 0.000000 0.000000 0.000000 0.000000 0.000000 0.000000 10.000000 
R_rear_hand02 0.000000 0.000000 0.000000 0.000000 0.000000 0.000000 10.000000 
R_rear_hand03 0.000000 0.000000 0.000000 0.000000 0.000000 0.000000 10.000000 
Rope4_Seg01 0.000000 0.000000 0.000000 0.000000 0.000000 0.000000 10.000000 
Rope4_Seg02 0.000000 0.000000 0.000000 0.000000 0.000000 0.000000 10.000000 
Rope4_Seg03 0.000000 0.000000 0.000000 0.000000 0.000000 0.000000 10.000000 
Rope4_Seg04 0.000000 0.000000 0.000000 0.000000 0.000000 0.000000 10.000000 
Rope4_Seg05 0.000000 0.000000 0.000000 0.000000 0.000000 0.000000 10.000000 
Rope4_Seg06 0.000000 0.000000 0.000000 0.000000 0.000000 0.000000 10.000000 
Rope4_Seg07 0.000000 0.000000 0.000000 0.000000 0.000000 0.000000 10.000000 
Rope4_Seg08 0.000000 0.000000 0.000000 0.000000 0.000000 0.000000 10.000000 
Rope4_Seg09 0.000000 0.000000 0.000000 0.000000 0.000000 0.000000 10.000000 
L_rear_hand01 0.000000 0.000000 0.000000 0.000000 0.000000 0.000000 10.000000 
L_rear_hand02 0.000000 0.000000 0.000000 0.000000 0.000000 0.000000 10.000000 
L_rear_hand03 0.000000 0.000000 0.000000 0.000000 0.000000 0.000000 10.000000 
#Beginning of Data. Separated by tabs
#Fr	Tx	Ty	Tz	Rx	Ry	Rz	SF
[MASTER]
15 0.000000 0.000000 0.000000 0.001660 0.001660 0.001660 0.000000
16 0.000000 0.000000 0.000000 0.001660 0.001660 0.001660 0.000000
[root]
15 -36.219631 -52.287086 4372.323730 -96.304420 3.234636 -93.686569 4372.786133
16 -35.582878 -52.627293 4565.406250 -96.451805 -4.390929 -93.183273 4565.848633
[chest]
15 -84.512650 -34.090519 0.000000 -12.381658 -30.091202 170.583664 91.129311
16 -84.512650 -34.090519 0.000000 -17.480288 -28.705414 173.867142 91.129311
[L_mid_tent01]
15 27.299547 22.177706 -249.918213 3.862624 36.229214 81.347603 252.381119
16 27.299551 22.177710 -249.918213 4.058757 39.865025 81.666389 252.381119
[R_mid_tent01]
15 23.228794 24.509907 226.238495 160.432037 -47.061241 87.899765 228.744751
16 23.228794 24.509907 226.238495 160.432037 -47.061241 87.899765 228.744751
[spine01]
15 -0.361383 -0.195265 0.000000 0.002062 0.001122 32.879829 0.410763
16 -0.361383 -0.195265 0.000000 0.002062 0.001122 32.879829 0.410763
[Bip01_Neck]
15 165.484543 71.581718 0.000119 176.643677 -1.657967 43.431911 180.302734
16 165.484543 71.581718 0.000119 176.643677 -1.657967 43.431911 180.302734
[L_humerus]
15 -13.983130 -135.272980 -120.471481 91.909225 73.340034 -140.775803 181.680161
16 -13.983130 -135.272980 -120.471481 47.710945 68.335358 170.232101 181.680161
[R_humerus]
15 -13.983309 -135.273102 125.287651 -172.699310 -12.427176 -96.749741 184.909012
16 -13.983309 -135.273102 125.287651 -170.625290 -16.323803 -100.905586 184.909012
[weapon_bone]
15 235.964890 -300.705902 0.000000 0.000000 -89.951546 -128.212341 382.234833
16 235.964890 -300.705902 0.000000 0.000000 -89.951546 -128.212341 382.234833
[Bip01_Head]
15 213.338608 186.008896 7.986906 32.999229 2.847189 -43.874058 283.154510
16 213.326874 186.042175 7.559357 33.220222 6.149227 -43.830608 283.155762
[eye_left_bone]
15 -24.626970 125.451866 -64.772606 0.000000 -90.000000 -99.840431 143.318359
16 -24.626970 125.451866 -64.772606 0.000000 -90.000000 -99.840431 143.318359
[eye_right_bone]
15 -24.626970 125.451866 64.327362 0.000000 -89.965736 80.156380 143.117676
16 -24.626970 125.451866 64.327362 0.000000 -89.965736 80.156380 143.117676
[L_forearm]
15 322.776093 0.000000 -0.000119 0.000119 -0.002344 -95.807457 322.776093
16 322.776093 0.000000 -0.000119 0.000119 -0.002344 -95.807457 322.776093
[L_front_hand]
15 241.149185 -0.042021 -3.300071 -178.667953 -1.835447 -27.422350 241.171753
16 241.149185 -0.042021 -3.300071 -178.667953 -1.835447 -27.422350 241.171753
[L_weapon_bone]
15 156.183838 0.000000 0.000000 0.000014 0.000007 0.000001 156.183838
16 156.183838 0.000000 0.000000 0.000014 0.000007 0.000001 156.183838
[L_front_hand01_01]
15 86.095154 20.947098 -0.655860 -0.274633 -0.532782 65.272827 88.609184
16 86.095154 20.947098 -0.655860 -0.280373 -0.529283 65.613800 88.609184
[L_front_hand02_01]
15 86.935165 -11.437475 24.513514 141.090271 -54.445614 -45.572052 91.046425
16 86.935165 -11.437475 24.513514 141.458649 -54.658344 -46.027485 91.046425
[L_front_hand03_01]
15 86.637497 -14.123976 -20.424902 -141.476303 52.677540 -47.637543 90.126129
16 86.637497 -14.123976 -20.424902 -141.832764 52.885189 -48.080185 90.126129
[L_front_hand01_02]
15 71.020905 -0.000179 0.000030 0.000315 -0.002326 -105.405197 71.020905
16 71.020905 -0.000179 0.000030 0.000315 -0.002326 -105.400543 71.020905
[L_front_hand02_02]
15 71.020927 -0.000119 0.000060 0.000315 -0.002326 -105.405197 71.020927
16 71.020927 -0.000119 0.000060 0.000315 -0.002326 -105.400543 71.020927
[L_front_hand03_02]
15 71.020905 -0.000060 0.000060 0.000315 -0.002326 -105.405197 71.020905
16 71.020905 -0.000060 0.000060 0.000315 -0.002326 -105.400543 71.020905
[R_forearm]
15 322.776428 -0.000060 0.000030 0.209504 0.012586 -94.339050 322.776428
16 322.776428 -0.000060 0.000030 0.209504 0.012586 -94.339050 322.776428
[R_front_hand]
15 238.847015 -0.006795 2.210259 -2.635298 -10.645461 -26.312506 238.857239
16 238.847015 -0.006795 2.210259 -2.635298 -10.645461 -26.312506 238.857239
[R_weapon_bone]
15 155.664093 0.002503 -0.000030 0.003487 0.001180 -90.988930 155.664078
16 155.664093 0.002503 -0.000030 0.003487 0.001180 -90.988930 155.664078
[R_front_hand01_01]
15 87.624611 14.231146 22.918642 -138.456909 -52.798630 42.405624 91.683487
16 87.624611 14.231146 22.918642 -138.672287 -52.939835 42.677601 91.683487
[R_front_hand02_01]
15 89.356956 14.367283 -19.491137 139.300415 51.240429 45.105949 92.579636
16 89.356956 14.367283 -19.491137 139.502045 51.377892 45.363930 92.579636
[R_front_hand03_01]
15 87.286232 -22.307278 -0.143439 0.064051 -0.451784 -62.968163 90.091743
16 87.286232 -22.307278 -0.143439 0.064897 -0.451663 -63.182877 90.091743
[R_front_hand01_02]
15 71.020905 0.000060 0.000119 0.002323 -0.000334 106.381714 71.020905
16 71.020905 0.000060 0.000119 0.002323 -0.000334 106.381714 71.020905
[R_front_hand02_02]
15 71.020844 -0.000030 -0.000119 0.002323 -0.000334 106.381714 71.020836
16 71.020844 -0.000030 -0.000119 0.002323 -0.000334 106.381714 71.020836
[R_front_hand03_02]
15 71.020905 0.000000 0.000030 0.002323 -0.000334 106.381714 71.020905
16 71.020905 0.000000 0.000030 0.002323 -0.000334 106.381714 71.020905
[null_rope01_connect]
15 328.732483 0.000000 -0.000238 -166.067322 -46.719097 171.891403 328.732483
16 328.732483 0.000000 -0.000238 -159.773819 -42.664543 173.277252 328.732483
[Rope1_Seg01]
15 0.000024 -0.000076 -0.000139 120.966202 17.581339 -165.403763 0.000160
16 0.000026 -0.000076 -0.000160 105.988403 -1.046017 -167.793045 0.000179
[Rope1_Seg02]
15 139.999863 -0.000179 0.000000 10.262956 -33.585659 6.422191 139.999863
16 139.999863 -0.000179 0.000000 12.991896 -25.795109 -5.027394 139.999863
[Rope1_Seg03]
15 139.999924 0.000060 -0.000060 -0.444590 -23.718534 9.059117 139.999924
16 139.999924 0.000060 -0.000060 5.896297 -35.115341 -3.485832 139.999924
[Rope1_Seg04]
15 139.999924 -0.000060 -0.000119 -2.618584 -15.690150 8.393959 139.999924
16 139.999924 -0.000060 -0.000119 -3.185920 -20.743145 4.574282 139.999924
[Rope1_Seg05]
15 139.999832 0.000119 -0.000060 -9.945855 -23.516981 14.344340 139.999832
16 139.999832 0.000119 -0.000060 -6.680279 -20.542694 16.234236 139.999832
[Rope1_Seg06]
15 139.999954 0.000119 -0.000060 -14.701432 -16.669281 6.824444 139.999954
16 139.999954 0.000119 -0.000060 -10.026546 -15.340965 9.321411 139.999954
[Rope1_Seg07]
15 139.999985 0.000060 0.000000 -16.009136 -9.878065 1.369088 139.999985
16 139.999985 0.000060 0.000000 -11.128763 -8.661098 3.014877 139.999985
[Rope1_Seg09]
15 121.602913 0.000119 -0.000089 -89.793175 -1.359789 0.847147 121.602913
16 121.602913 0.000119 -0.000089 -89.793175 -1.359789 0.847147 121.602913
[L_mid_hand01]
15 103.859421 1.038730 8.195221 118.511887 -58.710995 -25.432131 104.187431
16 103.859421 1.038730 8.195221 122.214622 -62.281231 -29.682964 104.187431
[L_mid_hand02]
15 105.572853 -4.139662 -10.864139 -159.626389 40.490177 -59.638344 106.211075
16 105.572853 -4.139662 -10.864139 -163.055801 41.815437 -64.846191 106.211075
[L_mid_hand03]
15 104.641464 17.579376 -3.913581 -9.285485 16.381811 63.801453 106.179977
16 104.641464 17.579376 -3.913581 -8.059158 17.002197 68.062881 106.179977
[null_rope02_connect]
15 328.732849 0.000179 -0.000119 -155.841156 47.037014 16.726175 328.732849
16 328.732849 0.000179 -0.000119 -147.448257 47.333138 17.800093 328.732849
[Rope2_Seg01]
15 -0.000121 0.000121 0.000055 -101.547333 63.143112 0.776348 0.000180
16 -0.000130 0.000119 0.000049 -94.720856 49.794796 -1.987615 0.000183
[Rope2_Seg02]
15 139.999741 -0.000060 -0.000119 -1.264207 -11.652959 6.542514 139.999756
16 139.999741 -0.000060 -0.000119 -3.895794 -8.656064 8.626372 139.999756
[Rope2_Seg03]
15 140.000107 0.000030 0.000000 -1.309485 -16.629913 8.237354 140.000107
16 140.000107 0.000030 0.000000 -3.777662 -14.171821 12.370453 140.000107
[Rope2_Seg04]
15 139.999802 0.000000 -0.000060 -1.357360 -18.966204 7.434092 139.999802
16 139.999802 0.000000 -0.000060 -2.566823 -19.054560 13.527925 139.999802
[Rope2_Seg05]
15 139.999985 -0.000060 0.000119 2.227789 -4.849668 10.318857 139.999985
16 139.999985 -0.000060 0.000119 0.885416 -9.007002 12.299288 139.999985
[Rope2_Seg06]
15 139.999893 -0.000030 -0.000119 6.260857 1.994051 13.012983 139.999893
16 139.999893 -0.000030 -0.000119 5.151905 -3.675423 14.533171 139.999893
[Rope2_Seg07]
15 139.999893 0.000060 -0.000060 4.652967 -0.359611 9.481728 139.999893
16 139.999893 0.000060 -0.000060 5.865467 -3.978705 11.851096 139.999893
[Rope2_Seg09]
15 121.338966 0.000089 -0.000060 33.793236 -1.359788 -0.847141 121.338966
16 121.338966 0.000089 -0.000060 33.793236 -1.359788 -0.847141 121.338966
[R_mid_hand01]
15 104.680779 11.144459 -10.335981 -34.826839 34.540043 41.908749 105.778534
16 104.680779 11.144459 -10.335981 -32.057350 37.073116 46.635818 105.778534
[R_mid_hand02]
15 104.070427 2.443552 8.231699 68.824303 -46.622643 16.260368 104.424065
16 104.070427 2.443552 8.231699 66.850014 -50.884758 18.890066 104.424065
[R_mid_hand03]
15 106.028137 -11.221827 -5.996406 -170.883774 12.973575 -51.735550 106.788818
16 106.028137 -11.221827 -5.996406 -171.959641 13.662919 -56.404911 106.788818
[spine02]
15 129.756927 0.001550 0.000119 -1.023899 -3.926965 6.770993 129.756927
16 129.756927 0.001550 0.000119 -1.023899 -3.926965 6.770993 129.756927
[spine03]
15 78.613892 0.087474 -4.898851 1.040681 4.146420 4.212376 78.766426
16 78.613892 0.087488 -4.898849 1.040680 4.146419 4.212375 78.766426
[pelvis]
15 169.435242 0.051022 0.000000 0.019518 -0.190233 -10.721436 169.435257
16 169.435242 0.051022 0.000000 0.019518 -0.190233 -10.721436 169.435257
[null_rope03_connect]
15 -1.257226 -2.466202 137.391083 -154.135483 -82.700775 -152.377335 137.418976
16 -1.257226 -2.466202 137.391083 -152.038162 -82.385834 -146.821960 137.418976
[null_rope04_connect]
15 -1.259640 -2.480268 -137.844437 -154.135483 -82.700775 -152.377335 137.872513
16 -1.259640 -2.480268 -137.844437 -152.038162 -82.385834 -146.821960 137.872513
[Rope3_Seg01]
15 0.000049 -0.000045 0.000194 -161.823685 42.566490 -116.420273 0.000205
16 0.000052 -0.000044 0.000208 -143.488770 26.031679 -106.270767 0.000219
[Rope3_Seg02]
15 139.999924 -0.000119 0.000060 5.801973 -3.683428 -24.642830 139.999924
16 139.999924 -0.000119 0.000060 5.225199 -10.256583 -31.726696 139.999924
[Rope3_Seg03]
15 139.999924 -0.000119 0.000119 1.074247 0.935560 -27.847324 139.999924
16 139.999924 -0.000119 0.000119 -2.343832 -1.407203 -25.981491 139.999924
[Rope3_Seg04]
15 139.999924 0.000119 0.000000 -0.341450 -4.645526 -13.349430 139.999924
16 139.999924 0.000119 0.000000 0.255094 -5.247979 -8.439078 139.999924
[Rope3_Seg05]
15 139.999924 -0.000238 0.000060 9.610564 -22.569595 2.776881 139.999924
16 139.999924 -0.000238 0.000060 12.334568 -18.393700 1.756462 139.999924
[Rope3_Seg06]
15 139.999893 -0.000119 -0.000060 10.168365 -16.993515 6.587560 139.999893
16 139.999893 -0.000119 -0.000060 16.449156 -19.102800 8.362468 139.999893
[Rope3_Seg07]
15 139.999771 0.000060 -0.000119 5.275165 -7.271360 3.174155 139.999771
16 139.999771 0.000060 -0.000119 8.314425 -8.263160 5.433359 139.999771
[Rope3_Seg08]
15 139.999985 -0.000060 0.000000 3.358044 -3.912750 2.169347 139.999985
16 139.999985 -0.000060 0.000000 4.946719 -4.260486 3.820966 139.999985
[Rope3_Seg09]
15 90.185997 -0.000179 -0.000060 89.793228 -1.359877 -0.847183 90.185997
16 90.185997 -0.000179 -0.000060 89.793228 -1.359877 -0.847183 90.185997
[R_rear_hand01]
15 103.366196 -6.073594 -10.757982 -167.736008 21.565809 -48.800846 104.101845
16 103.366196 -6.073594 -10.757982 -169.706436 22.536156 -54.046982 104.101845
[R_rear_hand02]
15 100.509819 12.039542 -7.992327 -27.197788 28.737711 46.115414 101.543350
16 100.509819 12.039542 -7.992327 -24.637733 30.906170 51.254921 101.543350
[R_rear_hand03]
15 101.539970 5.215704 5.435467 81.295578 -49.108295 10.466789 101.819031
16 101.539970 5.215704 5.435467 80.293877 -53.997543 11.741186 101.819031
[Rope4_Seg01]
15 0.000024 -0.000028 -0.000250 42.994862 16.462816 -123.359474 0.000252
16 0.000026 -0.000024 -0.000257 49.708401 -4.951173 -123.316238 0.000259
[Rope4_Seg02]
15 139.999985 0.000060 0.000119 -6.828712 14.247704 -18.527683 139.999985
16 139.999985 0.000060 0.000119 -12.095354 11.299462 -23.910780 139.999985
[Rope4_Seg03]
15 139.999924 0.000000 -0.000238 -2.200974 9.132664 -10.579604 139.999924
16 139.999924 0.000000 -0.000238 -8.213299 11.996552 -18.451078 139.999924
[Rope4_Seg04]
15 139.999985 0.000000 0.000119 -0.553191 5.323985 -5.744946 139.999985
16 139.999985 0.000000 0.000119 -2.942039 7.434258 -8.943492 139.999985
[Rope4_Seg05]
15 139.999802 -0.000060 -0.000119 -0.361085 9.407093 -8.083730 139.999802
16 139.999802 -0.000060 -0.000119 -3.068986 13.558208 -11.270933 139.999802
[Rope4_Seg06]
15 139.999924 0.000000 0.000060 0.915700 14.803028 -12.417757 139.999924
16 139.999924 0.000000 0.000060 -1.325004 21.820377 -16.537836 139.999924
[Rope4_Seg07]
15 139.999802 0.000000 0.000000 2.582128 9.907774 -9.169761 139.999802
16 139.999802 0.000000 0.000000 2.689264 12.160456 -9.804245 139.999802
[Rope4_Seg08]
15 139.999924 0.000000 0.000119 0.768284 5.549133 -5.761904 139.999924
16 139.999924 0.000000 0.000119 0.823446 5.860271 -5.346259 139.999924
[Rope4_Seg09]
15 90.185791 0.000060 0.000060 -135.617828 2.228885 0.850567 90.185791
16 90.185791 0.000060 0.000060 -135.617828 2.228885 0.850567 90.185791
[L_rear_hand01]
15 101.696655 -8.392275 -7.654577 -18.919886 -34.466530 118.185951 102.329041
16 101.696655 -8.392275 -7.654577 -16.606979 -35.526840 114.151619 102.329041
[L_rear_hand02]
15 102.726799 -1.568258 5.773216 77.226936 63.386848 164.679062 102.900848
16 102.726799 -1.568258 5.773216 75.446785 66.761177 162.720428 102.900848
[L_rear_hand03]
15 104.552910 9.721220 -10.420293 -173.780411 -23.916815 -115.646576 105.519653
16 104.552910 9.721220 -10.420293 -175.325211 -24.244322 -111.864204 105.519653
